<mxfile host="app.diagrams.net" agent="Mozilla/5.0 (Windows NT 10.0; Win64; x64) AppleWebKit/537.36 (KHTML, like Gecko) Chrome/131.0.0.0 Safari/537.36" version="26.0.4">
  <diagram name="Page-1" id="VjKegeMRG3lCf5vuZG2f">
    <mxGraphModel dx="781" dy="1097" grid="1" gridSize="10" guides="1" tooltips="1" connect="1" arrows="1" fold="1" page="1" pageScale="1" pageWidth="850" pageHeight="1100" math="0" shadow="0">
      <root>
        <mxCell id="0" />
        <mxCell id="1" parent="0" />
        <mxCell id="rDYK0OovCjZawTQLeJEm-3" value="" style="group" vertex="1" connectable="0" parent="1">
          <mxGeometry x="300" y="30" width="90" height="40" as="geometry" />
        </mxCell>
        <mxCell id="rDYK0OovCjZawTQLeJEm-1" value="" style="rounded=1;whiteSpace=wrap;html=1;fillColor=#cce5ff;strokeColor=#36393d;" vertex="1" parent="rDYK0OovCjZawTQLeJEm-3">
          <mxGeometry width="90" height="40" as="geometry" />
        </mxCell>
        <mxCell id="rDYK0OovCjZawTQLeJEm-2" value="Klientas" style="text;strokeColor=none;align=center;fillColor=none;html=1;verticalAlign=middle;whiteSpace=wrap;rounded=0;" vertex="1" parent="rDYK0OovCjZawTQLeJEm-3">
          <mxGeometry x="15" y="5" width="60" height="30" as="geometry" />
        </mxCell>
        <mxCell id="rDYK0OovCjZawTQLeJEm-7" value="" style="group" vertex="1" connectable="0" parent="1">
          <mxGeometry x="300" y="160" width="110" height="50" as="geometry" />
        </mxCell>
        <mxCell id="rDYK0OovCjZawTQLeJEm-5" value="" style="ellipse;whiteSpace=wrap;html=1;fillColor=#ffcc99;strokeColor=#36393d;" vertex="1" parent="rDYK0OovCjZawTQLeJEm-7">
          <mxGeometry width="110" height="50" as="geometry" />
        </mxCell>
        <mxCell id="rDYK0OovCjZawTQLeJEm-6" value="Serveris" style="text;strokeColor=none;align=center;fillColor=none;html=1;verticalAlign=middle;whiteSpace=wrap;rounded=0;" vertex="1" parent="rDYK0OovCjZawTQLeJEm-7">
          <mxGeometry x="25" y="10" width="60" height="30" as="geometry" />
        </mxCell>
        <mxCell id="rDYK0OovCjZawTQLeJEm-8" value="" style="endArrow=classic;html=1;rounded=0;fillColor=#ffcccc;strokeColor=light-dark(#19d739, #babdc0);strokeWidth=2;exitX=0.111;exitY=1.05;exitDx=0;exitDy=0;entryX=0.336;entryY=0.12;entryDx=0;entryDy=0;entryPerimeter=0;exitPerimeter=0;" edge="1" parent="1" source="rDYK0OovCjZawTQLeJEm-1" target="rDYK0OovCjZawTQLeJEm-5">
          <mxGeometry width="50" height="50" relative="1" as="geometry">
            <mxPoint x="300" y="70" as="sourcePoint" />
            <mxPoint x="170" y="130" as="targetPoint" />
          </mxGeometry>
        </mxCell>
        <mxCell id="rDYK0OovCjZawTQLeJEm-12" value="" style="group" vertex="1" connectable="0" parent="1">
          <mxGeometry x="70" y="180" width="200" height="170" as="geometry" />
        </mxCell>
        <mxCell id="rDYK0OovCjZawTQLeJEm-10" value="" style="whiteSpace=wrap;html=1;aspect=fixed;fillColor=#ffff88;strokeColor=#36393d;" vertex="1" parent="rDYK0OovCjZawTQLeJEm-12">
          <mxGeometry x="11.999999999999998" width="149.67391304347825" height="149.67391304347825" as="geometry" />
        </mxCell>
        <mxCell id="rDYK0OovCjZawTQLeJEm-11" value="Midleware&amp;nbsp;&lt;span style=&quot;background-color: transparent; color: light-dark(rgb(0, 0, 0), rgb(255, 255, 255));&quot;&gt;visokios&amp;nbsp;&lt;/span&gt;&lt;span style=&quot;background-color: transparent; color: light-dark(rgb(0, 0, 0), rgb(255, 255, 255));&quot;&gt;tokia&lt;/span&gt;&lt;div&gt;&lt;span style=&quot;background-color: transparent; color: light-dark(rgb(0, 0, 0), rgb(255, 255, 255));&quot;&gt;eilės&amp;nbsp;&lt;/span&gt;&lt;span style=&quot;background-color: transparent; color: light-dark(rgb(0, 0, 0), rgb(255, 255, 255));&quot;&gt;tvarka,&amp;nbsp;&lt;/span&gt;&lt;/div&gt;&lt;div&gt;&lt;span style=&quot;background-color: transparent; color: light-dark(rgb(0, 0, 0), rgb(255, 255, 255));&quot;&gt;kaip&amp;nbsp;&lt;/span&gt;&lt;span style=&quot;background-color: transparent; color: light-dark(rgb(0, 0, 0), rgb(255, 255, 255));&quot;&gt;surašyta&lt;/span&gt;&lt;div&gt;&lt;span style=&quot;background-color: transparent; color: light-dark(rgb(0, 0, 0), rgb(255, 255, 255));&quot;&gt;&lt;br&gt;&lt;/span&gt;&lt;/div&gt;&lt;div&gt;&lt;font style=&quot;font-size: 20px;&quot;&gt;app.use()&lt;/font&gt;&lt;/div&gt;&lt;/div&gt;" style="text;strokeColor=none;align=center;fillColor=none;html=1;verticalAlign=middle;whiteSpace=wrap;rounded=0;" vertex="1" parent="rDYK0OovCjZawTQLeJEm-12">
          <mxGeometry x="-4.000000000000002" y="19.391304347826086" width="185.77777777777777" height="56.6691304347826" as="geometry" />
        </mxCell>
        <mxCell id="rDYK0OovCjZawTQLeJEm-40" value="express.json()&lt;div&gt;router&lt;/div&gt;&lt;div&gt;etc&lt;/div&gt;" style="text;strokeColor=none;align=center;fillColor=none;html=1;verticalAlign=middle;whiteSpace=wrap;rounded=0;" vertex="1" parent="rDYK0OovCjZawTQLeJEm-12">
          <mxGeometry x="62.1111111111111" y="105.79347826086956" width="53.33333333333333" height="22.173913043478258" as="geometry" />
        </mxCell>
        <mxCell id="rDYK0OovCjZawTQLeJEm-13" value="" style="endArrow=classic;html=1;rounded=0;exitX=0;exitY=0.5;exitDx=0;exitDy=0;entryX=0.5;entryY=0;entryDx=0;entryDy=0;strokeColor=light-dark(#21e86d, #ededed);strokeWidth=2;" edge="1" parent="rDYK0OovCjZawTQLeJEm-12" source="rDYK0OovCjZawTQLeJEm-5">
          <mxGeometry width="50" height="50" relative="1" as="geometry">
            <mxPoint x="294.85" y="76.06" as="sourcePoint" />
            <mxPoint x="161.67695652173913" y="36.06" as="targetPoint" />
          </mxGeometry>
        </mxCell>
        <mxCell id="rDYK0OovCjZawTQLeJEm-17" value="" style="endArrow=classic;html=1;rounded=0;exitX=0.995;exitY=0.844;exitDx=0;exitDy=0;strokeWidth=2;strokeColor=light-dark(#4fe672, #ededed);exitPerimeter=0;entryX=0.442;entryY=0;entryDx=0;entryDy=0;entryPerimeter=0;" edge="1" parent="1" source="rDYK0OovCjZawTQLeJEm-10" target="rDYK0OovCjZawTQLeJEm-14">
          <mxGeometry width="50" height="50" relative="1" as="geometry">
            <mxPoint x="380" y="590" as="sourcePoint" />
            <mxPoint x="320" y="360" as="targetPoint" />
          </mxGeometry>
        </mxCell>
        <mxCell id="rDYK0OovCjZawTQLeJEm-28" value="" style="endArrow=classic;html=1;rounded=0;entryX=1;entryY=1;entryDx=0;entryDy=0;strokeWidth=2;strokeColor=light-dark(#e10e0e, #ededed);exitX=0.75;exitY=0;exitDx=0;exitDy=0;" edge="1" parent="1" source="rDYK0OovCjZawTQLeJEm-14" target="rDYK0OovCjZawTQLeJEm-5">
          <mxGeometry width="50" height="50" relative="1" as="geometry">
            <mxPoint x="350" y="390" as="sourcePoint" />
            <mxPoint x="430" y="540" as="targetPoint" />
          </mxGeometry>
        </mxCell>
        <mxCell id="rDYK0OovCjZawTQLeJEm-30" value="" style="endArrow=classic;html=1;rounded=0;entryX=0.75;entryY=1;entryDx=0;entryDy=0;strokeWidth=2;strokeColor=light-dark(#e10e0e, #ededed);exitX=0.618;exitY=0.08;exitDx=0;exitDy=0;exitPerimeter=0;" edge="1" parent="1" source="rDYK0OovCjZawTQLeJEm-5" target="rDYK0OovCjZawTQLeJEm-1">
          <mxGeometry width="50" height="50" relative="1" as="geometry">
            <mxPoint x="260" y="160" as="sourcePoint" />
            <mxPoint x="264" y="203" as="targetPoint" />
          </mxGeometry>
        </mxCell>
        <mxCell id="rDYK0OovCjZawTQLeJEm-31" value="" style="endArrow=classic;html=1;rounded=0;exitX=0.175;exitY=0.925;exitDx=0;exitDy=0;entryX=1.008;entryY=0.117;entryDx=0;entryDy=0;strokeWidth=2;strokeColor=light-dark(#4fe672, #ededed);entryPerimeter=0;exitPerimeter=0;" edge="1" parent="1" source="rDYK0OovCjZawTQLeJEm-14" target="rDYK0OovCjZawTQLeJEm-43">
          <mxGeometry width="50" height="50" relative="1" as="geometry">
            <mxPoint x="121" y="350" as="sourcePoint" />
            <mxPoint x="210" y="410" as="targetPoint" />
          </mxGeometry>
        </mxCell>
        <mxCell id="rDYK0OovCjZawTQLeJEm-32" value="" style="endArrow=classic;html=1;rounded=0;entryX=0.5;entryY=1;entryDx=0;entryDy=0;strokeWidth=2;strokeColor=light-dark(#e10e0e, #ededed);exitX=0.992;exitY=0.633;exitDx=0;exitDy=0;exitPerimeter=0;" edge="1" parent="1" source="rDYK0OovCjZawTQLeJEm-43" target="rDYK0OovCjZawTQLeJEm-14">
          <mxGeometry width="50" height="50" relative="1" as="geometry">
            <mxPoint x="330" y="450" as="sourcePoint" />
            <mxPoint x="264" y="203" as="targetPoint" />
          </mxGeometry>
        </mxCell>
        <mxCell id="rDYK0OovCjZawTQLeJEm-35" value="" style="group" vertex="1" connectable="0" parent="1">
          <mxGeometry x="460" y="450" width="120" height="60" as="geometry" />
        </mxCell>
        <mxCell id="rDYK0OovCjZawTQLeJEm-33" value="" style="shape=parallelogram;perimeter=parallelogramPerimeter;whiteSpace=wrap;html=1;fixedSize=1;fillColor=#cdeb8b;strokeColor=#36393d;" vertex="1" parent="rDYK0OovCjZawTQLeJEm-35">
          <mxGeometry width="120" height="60" as="geometry" />
        </mxCell>
        <mxCell id="rDYK0OovCjZawTQLeJEm-34" value="Servisai&lt;div&gt;Helperiai&lt;/div&gt;" style="text;strokeColor=none;align=center;fillColor=none;html=1;verticalAlign=middle;whiteSpace=wrap;rounded=0;" vertex="1" parent="rDYK0OovCjZawTQLeJEm-35">
          <mxGeometry x="30" y="15" width="60" height="30" as="geometry" />
        </mxCell>
        <mxCell id="rDYK0OovCjZawTQLeJEm-36" value="" style="endArrow=classic;html=1;rounded=0;entryX=0.25;entryY=0;entryDx=0;entryDy=0;strokeWidth=2;strokeColor=light-dark(#4fe672, #ededed);exitX=0.75;exitY=1;exitDx=0;exitDy=0;" edge="1" parent="1" source="rDYK0OovCjZawTQLeJEm-14" target="rDYK0OovCjZawTQLeJEm-33">
          <mxGeometry width="50" height="50" relative="1" as="geometry">
            <mxPoint x="350" y="430" as="sourcePoint" />
            <mxPoint x="239" y="644" as="targetPoint" />
          </mxGeometry>
        </mxCell>
        <mxCell id="rDYK0OovCjZawTQLeJEm-37" value="" style="endArrow=classic;html=1;rounded=0;entryX=1;entryY=0.75;entryDx=0;entryDy=0;strokeWidth=2;strokeColor=light-dark(#e10e0e, #ededed);exitX=0.75;exitY=0;exitDx=0;exitDy=0;" edge="1" parent="1" source="rDYK0OovCjZawTQLeJEm-33" target="rDYK0OovCjZawTQLeJEm-14">
          <mxGeometry width="50" height="50" relative="1" as="geometry">
            <mxPoint x="409" y="403" as="sourcePoint" />
            <mxPoint x="344" y="213" as="targetPoint" />
          </mxGeometry>
        </mxCell>
        <mxCell id="rDYK0OovCjZawTQLeJEm-39" value="" style="group" vertex="1" connectable="0" parent="1">
          <mxGeometry x="510" y="130" width="170" height="72" as="geometry" />
        </mxCell>
        <mxCell id="rDYK0OovCjZawTQLeJEm-20" value="" style="group" vertex="1" connectable="0" parent="rDYK0OovCjZawTQLeJEm-39">
          <mxGeometry width="170" height="30" as="geometry" />
        </mxCell>
        <mxCell id="rDYK0OovCjZawTQLeJEm-18" value="" style="endArrow=classic;html=1;rounded=0;strokeWidth=3;strokeColor=light-dark(#43d543, #ededed);" edge="1" parent="rDYK0OovCjZawTQLeJEm-20">
          <mxGeometry width="50" height="50" relative="1" as="geometry">
            <mxPoint y="26" as="sourcePoint" />
            <mxPoint x="170" y="26" as="targetPoint" />
          </mxGeometry>
        </mxCell>
        <mxCell id="rDYK0OovCjZawTQLeJEm-19" value="req - užklausa" style="text;strokeColor=none;align=center;fillColor=none;html=1;verticalAlign=middle;whiteSpace=wrap;rounded=0;" vertex="1" parent="rDYK0OovCjZawTQLeJEm-20">
          <mxGeometry x="40" width="80" height="30" as="geometry" />
        </mxCell>
        <mxCell id="rDYK0OovCjZawTQLeJEm-23" value="" style="endArrow=classic;html=1;rounded=0;strokeWidth=3;strokeColor=light-dark(#e81111, #ededed);" edge="1" parent="rDYK0OovCjZawTQLeJEm-39">
          <mxGeometry width="50" height="50" relative="1" as="geometry">
            <mxPoint x="160" y="66" as="sourcePoint" />
            <mxPoint y="66" as="targetPoint" />
          </mxGeometry>
        </mxCell>
        <mxCell id="rDYK0OovCjZawTQLeJEm-24" value="res - atsakymas" style="text;strokeColor=none;align=center;fillColor=none;html=1;verticalAlign=middle;whiteSpace=wrap;rounded=0;" vertex="1" parent="rDYK0OovCjZawTQLeJEm-39">
          <mxGeometry x="40" y="42" width="90" height="30" as="geometry" />
        </mxCell>
        <mxCell id="rDYK0OovCjZawTQLeJEm-14" value="" style="shape=parallelogram;perimeter=parallelogramPerimeter;whiteSpace=wrap;html=1;fixedSize=1;fillColor=#ffcccc;strokeColor=#36393d;" vertex="1" parent="1">
          <mxGeometry x="330" y="340" width="120" height="40" as="geometry" />
        </mxCell>
        <mxCell id="rDYK0OovCjZawTQLeJEm-15" value="Kontroleris" style="text;strokeColor=none;align=center;fillColor=none;html=1;verticalAlign=middle;whiteSpace=wrap;rounded=0;" vertex="1" parent="1">
          <mxGeometry x="360" y="345" width="60" height="30" as="geometry" />
        </mxCell>
        <mxCell id="rDYK0OovCjZawTQLeJEm-43" value="Model&lt;div&gt;pvz. user, todo&lt;/div&gt;&lt;div&gt;ar pan.&lt;/div&gt;" style="rounded=0;whiteSpace=wrap;html=1;fillColor=#b0e3e6;strokeColor=#0e8088;" vertex="1" parent="1">
          <mxGeometry x="180" y="400" width="120" height="60" as="geometry" />
        </mxCell>
        <mxCell id="rDYK0OovCjZawTQLeJEm-44" value="" style="endArrow=classic;html=1;rounded=0;entryX=0.75;entryY=1;entryDx=0;entryDy=0;strokeWidth=2;strokeColor=light-dark(#e10e0e, #ededed);exitX=1;exitY=0;exitDx=0;exitDy=27.5;exitPerimeter=0;" edge="1" parent="1" source="rDYK0OovCjZawTQLeJEm-25" target="rDYK0OovCjZawTQLeJEm-43">
          <mxGeometry width="50" height="50" relative="1" as="geometry">
            <mxPoint x="308" y="462" as="sourcePoint" />
            <mxPoint x="378" y="391" as="targetPoint" />
          </mxGeometry>
        </mxCell>
        <mxCell id="rDYK0OovCjZawTQLeJEm-45" value="" style="endArrow=classic;html=1;rounded=0;exitX=0.25;exitY=1;exitDx=0;exitDy=0;entryX=0.145;entryY=0;entryDx=0;entryDy=4.35;strokeWidth=2;strokeColor=light-dark(#4fe672, #ededed);entryPerimeter=0;" edge="1" parent="1" source="rDYK0OovCjZawTQLeJEm-43" target="rDYK0OovCjZawTQLeJEm-25">
          <mxGeometry width="50" height="50" relative="1" as="geometry">
            <mxPoint x="361" y="387" as="sourcePoint" />
            <mxPoint x="311" y="417" as="targetPoint" />
          </mxGeometry>
        </mxCell>
        <mxCell id="rDYK0OovCjZawTQLeJEm-25" value="DB" style="shape=cylinder3;whiteSpace=wrap;html=1;boundedLbl=1;backgroundOutline=1;size=15;fillColor=#cdeb8b;strokeColor=#36393d;" vertex="1" parent="1">
          <mxGeometry x="280" y="510" width="60" height="80" as="geometry" />
        </mxCell>
      </root>
    </mxGraphModel>
  </diagram>
</mxfile>
